<svg width="28" height="28" viewBox="0 0 28 28" fill="none" xmlns="http://www.w3.org/2000/svg">
<g clip-path="url(#clip0_4_30)">
<path d="M8.56953 14H0.875C0.39375 14 0 14.3937 0 14.875V16.625C0 17.1062 0.39375 17.5 0.875 17.5H8.65156C9.52109 17.5 10.3359 18.0961 10.4781 18.9547C10.6586 20.0484 9.81641 21 8.75 21C7.97891 21 7.32266 20.4969 7.0875 19.8023C6.97266 19.4578 6.61719 19.25 6.25625 19.25H4.4625C3.92656 19.25 3.49453 19.7312 3.59297 20.2562C4.06328 22.668 6.19609 24.5 8.74453 24.5C11.8672 24.5 14.3609 21.7601 13.9508 18.5609C13.6172 15.9141 11.2328 14 8.56953 14ZM0.875 12.25H19.25C22.5148 12.25 25.0906 9.25312 24.3797 5.86796C23.9641 3.88827 22.3617 2.28593 20.382 1.8703C17.3523 1.23593 14.6344 3.23202 14.0984 5.99921C13.9945 6.52421 14.432 6.99999 14.9625 6.99999H16.7563C17.1227 6.99999 17.4727 6.79218 17.5875 6.44765C17.8227 5.75312 18.4789 5.24999 19.25 5.24999C20.3109 5.24999 21.1586 6.20155 20.9781 7.2953C20.8359 8.1539 20.0266 8.74999 19.1516 8.74999H0.875C0.39375 8.74999 0 9.14374 0 9.62499V11.375C0 11.8562 0.39375 12.25 0.875 12.25ZM21.875 14H13.3273C14.3828 14.9078 15.143 16.1219 15.5039 17.5H21.875C23.3242 17.5 24.5 18.6758 24.5 20.125C24.5 21.5742 23.3242 22.75 21.875 22.75C20.8961 22.75 20.0539 22.2086 19.6 21.4156C19.4414 21.1422 19.1242 21 18.807 21H16.9586C16.3625 21 15.9195 21.5906 16.1219 22.1539C17.0953 24.9211 19.9773 26.7914 23.1984 26.1078C25.4516 25.632 27.3055 23.8328 27.8305 21.5851C28.7656 17.582 25.7305 14 21.875 14Z" fill="url(#paint0_linear_4_30)" style=""/>
</g>
<defs>
<linearGradient id="paint0_linear_4_30" x1="14.0006" y1="1.75208" x2="14.0006" y2="26.2493" gradientUnits="userSpaceOnUse">
<stop stop-color="#1876F0" style="stop-color:#1876F0;stop-color:color(display-p3 0.0941 0.4627 0.9412);stop-opacity:1;"/>
<stop offset="1" stop-color="#2FB9ED" style="stop-color:#2FB9ED;stop-color:color(display-p3 0.1843 0.7255 0.9294);stop-opacity:1;"/>
</linearGradient>
<clipPath id="clip0_4_30">
<rect width="28" height="28" fill="white" style="fill:white;fill-opacity:1;"/>
</clipPath>
</defs>
</svg>
