<svg width="28" height="20" viewBox="0 0 28 20" fill="none" xmlns="http://www.w3.org/2000/svg">
<path d="M23.52 8.73672C23.6994 8.27695 23.8 7.77422 23.8 7.25C23.8 4.97266 21.9187 3.125 19.6 3.125C18.7381 3.125 17.9331 3.38281 17.2681 3.82109C16.0562 1.75859 13.7944 0.375 11.2 0.375C7.3325 0.375 4.2 3.45156 4.2 7.25C4.2 7.36602 4.20437 7.48203 4.20875 7.59805C1.75875 8.44453 0 10.7391 0 13.4375C0 16.8535 2.82187 19.625 6.3 19.625H22.4C25.4931 19.625 28 17.1629 28 14.125C28 11.4652 26.075 9.24375 23.52 8.73672Z" fill="#D8D5D5" style="fill:#D8D5D5;fill:color(display-p3 0.8458 0.8353 0.8353);fill-opacity:1;"/>
</svg>
