<svg width="28" height="28" viewBox="0 0 28 28" fill="none" xmlns="http://www.w3.org/2000/svg">
<path d="M6.99533 10.5C8.64383 10.5 9.51533 9.62854 10.1512 8.99154C10.7228 8.41987 11.004 8.16671 11.6585 8.16671C12.313 8.16671 12.5942 8.41987 13.1658 8.99154C13.8017 9.62854 14.6732 10.5 16.3228 10.5C17.9737 10.5 18.8463 9.62854 19.4845 8.99154C20.0573 8.41987 20.3385 8.16671 20.9953 8.16671C21.6522 8.16671 21.9333 8.41987 22.5062 8.99154C23.1432 9.62854 24.0158 10.5 25.6667 10.5V8.16671C25.0098 8.16671 24.7287 7.91354 24.1558 7.34187C23.5188 6.70487 22.6462 5.83337 20.9953 5.83337C19.3445 5.83337 18.473 6.70487 17.8348 7.34071C17.262 7.91354 16.982 8.16671 16.3228 8.16671C15.6672 8.16671 15.3872 7.91354 14.8155 7.34187C14.1797 6.70487 13.3082 5.83337 11.6585 5.83337C10.0088 5.83337 9.13733 6.70487 8.5015 7.34187C7.92983 7.91354 7.64983 8.16671 6.99533 8.16671C6.34083 8.16671 6.06083 7.91354 5.48916 7.34187C4.85333 6.70487 3.98183 5.83337 2.33333 5.83337V8.16671C2.98783 8.16671 3.26783 8.41987 3.83949 8.99154C4.47533 9.62854 5.34683 10.5 6.99533 10.5ZM6.99533 16.3334C8.64383 16.3334 9.51533 15.4619 10.1512 14.8249C10.7228 14.2532 11.004 14 11.6585 14C12.313 14 12.5942 14.2532 13.1658 14.8249C13.8017 15.4619 14.6732 16.3334 16.3228 16.3334C17.9737 16.3334 18.8463 15.4619 19.4845 14.8249C20.0573 14.2532 20.3385 14 20.9953 14C21.6522 14 21.9333 14.2532 22.5062 14.8249C23.1432 15.4619 24.0158 16.3334 25.6667 16.3334V14C25.0098 14 24.7287 13.7469 24.1558 13.1752C23.5188 12.5382 22.6462 11.6667 20.9953 11.6667C19.3445 11.6667 18.473 12.5382 17.8348 13.174C17.262 13.7469 16.982 14 16.3228 14C15.6672 14 15.3872 13.7469 14.8155 13.1752C14.1797 12.5382 13.3082 11.6667 11.6585 11.6667C10.0088 11.6667 9.13733 12.5382 8.5015 13.1752C7.92983 13.7469 7.64983 14 6.99533 14C6.34083 14 6.06083 13.7469 5.48916 13.1752C4.85333 12.5382 3.98183 11.6667 2.33333 11.6667V14C2.98783 14 3.26783 14.2532 3.83949 14.8249C4.47533 15.4619 5.34683 16.3334 6.99533 16.3334ZM6.99533 22.1667C8.64383 22.1667 9.51533 21.2952 10.1512 20.6582C10.7228 20.0865 11.004 19.8334 11.6585 19.8334C12.313 19.8334 12.5942 20.0865 13.1658 20.6582C13.8017 21.2952 14.6732 22.1667 16.3228 22.1667C17.9737 22.1667 18.8463 21.2952 19.4845 20.6582C20.0573 20.0865 20.3385 19.8334 20.9953 19.8334C21.6522 19.8334 21.9333 20.0865 22.5062 20.6582C23.1432 21.2952 24.0158 22.1667 25.6667 22.1667V19.8334C25.0098 19.8334 24.7287 19.5802 24.1558 19.0085C23.5188 18.3715 22.6462 17.5 20.9953 17.5C19.3445 17.5 18.473 18.3715 17.8348 19.0074C17.262 19.5802 16.982 19.8334 16.3228 19.8334C15.6672 19.8334 15.3872 19.5802 14.8155 19.0085C14.1797 18.3715 13.3082 17.5 11.6585 17.5C10.0088 17.5 9.13733 18.3715 8.5015 19.0085C7.92983 19.5802 7.64983 19.8334 6.99533 19.8334C6.34083 19.8334 6.06083 19.5802 5.48916 19.0085C4.85333 18.3715 3.98183 17.5 2.33333 17.5V19.8334C2.98783 19.8334 3.26783 20.0865 3.83949 20.6582C4.47533 21.2952 5.34683 22.1667 6.99533 22.1667Z" fill="url(#paint0_linear_4_25)" style=""/>
<defs>
<linearGradient id="paint0_linear_4_25" x1="14" y1="5.83337" x2="14" y2="22.1667" gradientUnits="userSpaceOnUse">
<stop stop-color="#1876F0" style="stop-color:#1876F0;stop-color:color(display-p3 0.0941 0.4627 0.9412);stop-opacity:1;"/>
<stop offset="1" stop-color="#2FB9ED" style="stop-color:#2FB9ED;stop-color:color(display-p3 0.1843 0.7255 0.9294);stop-opacity:1;"/>
</linearGradient>
</defs>
</svg>
