<svg width="208" height="114" viewBox="0 0 208 114" fill="none" xmlns="http://www.w3.org/2000/svg">
<g filter="url(#filter0_ii_4_50)">
<path fill-rule="evenodd" clip-rule="evenodd" d="M170.114 113.436H31.0273C31.0112 113.28 30.9958 113.123 30.9812 112.967C13.4002 110.262 0 96.1777 0 79.2094C0 62.3063 13.2973 48.265 30.7785 45.4836C30.7765 45.317 30.7755 45.1502 30.7755 44.9831C30.7755 20.1396 52.6313 0 79.5918 0C97.1785 0 112.593 8.56959 121.186 21.4244C126.563 18.9772 132.617 17.6021 139.02 17.6021C157.876 17.6021 173.708 29.5263 178.122 45.6375C195.157 48.7502 208 62.5978 208 79.2094C208 98.112 191.371 113.436 170.857 113.436C170.609 113.436 170.362 113.433 170.116 113.429C170.115 113.431 170.115 113.433 170.114 113.436Z" fill="white" style="fill:white;fill-opacity:1;"/>
</g>
<defs>
<filter id="filter0_ii_4_50" x="0" y="-10" width="213" height="127.436" filterUnits="userSpaceOnUse" color-interpolation-filters="sRGB">
<feFlood flood-opacity="0" result="BackgroundImageFix"/>
<feBlend mode="normal" in="SourceGraphic" in2="BackgroundImageFix" result="shape"/>
<feColorMatrix in="SourceAlpha" type="matrix" values="0 0 0 0 0 0 0 0 0 0 0 0 0 0 0 0 0 0 127 0" result="hardAlpha"/>
<feOffset dx="5" dy="-10"/>
<feGaussianBlur stdDeviation="16.3"/>
<feComposite in2="hardAlpha" operator="arithmetic" k2="-1" k3="1"/>
<feColorMatrix type="matrix" values="0 0 0 0 0.0980392 0 0 0 0 0.258824 0 0 0 0 0.501961 0 0 0 0.1 0"/>
<feBlend mode="normal" in2="shape" result="effect1_innerShadow_4_50"/>
<feColorMatrix in="SourceAlpha" type="matrix" values="0 0 0 0 0 0 0 0 0 0 0 0 0 0 0 0 0 0 127 0" result="hardAlpha"/>
<feOffset dy="4"/>
<feGaussianBlur stdDeviation="8.75"/>
<feComposite in2="hardAlpha" operator="arithmetic" k2="-1" k3="1"/>
<feColorMatrix type="matrix" values="0 0 0 0 0.0989583 0 0 0 0 0.259375 0 0 0 0 0.5 0 0 0 0.1 0"/>
<feBlend mode="normal" in2="effect1_innerShadow_4_50" result="effect2_innerShadow_4_50"/>
</filter>
</defs>
</svg>
